<mxfile host="app.diagrams.net" modified="2021-04-01T12:35:33.306Z" agent="5.0 (Windows NT 10.0; Win64; x64) AppleWebKit/537.36 (KHTML, like Gecko) Chrome/89.0.4389.82 Safari/537.36" etag="XS2dp3DoWkWAN_XOPSvj" version="14.5.3" type="github">
  <diagram id="sl5D3W4wS8MZrD4xvT9y" name="Page-1">
    <mxGraphModel dx="2234" dy="2320" grid="1" gridSize="10" guides="1" tooltips="1" connect="1" arrows="1" fold="1" page="1" pageScale="1" pageWidth="827" pageHeight="1169" math="0" shadow="0">
      <root>
        <mxCell id="0" />
        <mxCell id="1" parent="0" />
        <mxCell id="1Bm8bW64AVhzCGLXQXjF-1" value="" style="rounded=1;whiteSpace=wrap;html=1;strokeColor=#666666;fontColor=#333333;fillColor=#B3B3B3;" vertex="1" parent="1">
          <mxGeometry x="405" y="-970" width="90" height="160" as="geometry" />
        </mxCell>
        <mxCell id="1Bm8bW64AVhzCGLXQXjF-2" value="" style="rounded=0;whiteSpace=wrap;html=1;fillColor=#dae8fc;strokeColor=#6c8ebf;" vertex="1" parent="1">
          <mxGeometry x="405" y="-952.5" width="90" height="125" as="geometry" />
        </mxCell>
        <mxCell id="1Bm8bW64AVhzCGLXQXjF-70" value="" style="ellipse;whiteSpace=wrap;html=1;aspect=fixed;strokeColor=#d6b656;fillColor=#fff2cc;" vertex="1" parent="1">
          <mxGeometry x="433" y="-910" width="50" height="50" as="geometry" />
        </mxCell>
        <mxCell id="1Bm8bW64AVhzCGLXQXjF-13" value="" style="shape=cube;whiteSpace=wrap;html=1;boundedLbl=1;backgroundOutline=1;darkOpacity=0.05;darkOpacity2=0.1;fillColor=#f5f5f5;strokeColor=#666666;fontColor=#333333;" vertex="1" parent="1">
          <mxGeometry x="970" y="-1048.75" width="180" height="270" as="geometry" />
        </mxCell>
        <mxCell id="1Bm8bW64AVhzCGLXQXjF-14" value="" style="rounded=0;whiteSpace=wrap;html=1;fillColor=#f5f5f5;strokeColor=#666666;fontColor=#333333;" vertex="1" parent="1">
          <mxGeometry x="1060" y="-1008.75" width="70" height="20" as="geometry" />
        </mxCell>
        <mxCell id="1Bm8bW64AVhzCGLXQXjF-15" value="" style="endArrow=none;html=1;strokeColor=#B3B3B3;entryX=1.014;entryY=0.344;entryDx=0;entryDy=0;entryPerimeter=0;" edge="1" parent="1" target="1Bm8bW64AVhzCGLXQXjF-13">
          <mxGeometry width="50" height="50" relative="1" as="geometry">
            <mxPoint x="990" y="-955.75" as="sourcePoint" />
            <mxPoint x="830" y="-1048.75" as="targetPoint" />
          </mxGeometry>
        </mxCell>
        <mxCell id="1Bm8bW64AVhzCGLXQXjF-16" value="" style="endArrow=none;html=1;strokeColor=#B3B3B3;entryX=0.986;entryY=0.919;entryDx=0;entryDy=0;entryPerimeter=0;" edge="1" parent="1" target="1Bm8bW64AVhzCGLXQXjF-13">
          <mxGeometry width="50" height="50" relative="1" as="geometry">
            <mxPoint x="990" y="-800.75" as="sourcePoint" />
            <mxPoint x="830" y="-1048.75" as="targetPoint" />
          </mxGeometry>
        </mxCell>
        <mxCell id="1Bm8bW64AVhzCGLXQXjF-17" value="" style="ellipse;whiteSpace=wrap;html=1;fillColor=#d5e8d4;strokeColor=#82b366;" vertex="1" parent="1">
          <mxGeometry x="1000" y="-1008.75" width="20" height="20" as="geometry" />
        </mxCell>
        <mxCell id="1Bm8bW64AVhzCGLXQXjF-18" value="" style="endArrow=none;html=1;" edge="1" parent="1">
          <mxGeometry width="50" height="50" relative="1" as="geometry">
            <mxPoint x="405" y="-952.5" as="sourcePoint" />
            <mxPoint x="495" y="-952.5" as="targetPoint" />
          </mxGeometry>
        </mxCell>
        <mxCell id="1Bm8bW64AVhzCGLXQXjF-19" value="" style="endArrow=none;html=1;strokeColor=#000000;" edge="1" parent="1">
          <mxGeometry width="50" height="50" relative="1" as="geometry">
            <mxPoint x="440" y="-957.5" as="sourcePoint" />
            <mxPoint x="460" y="-957.5" as="targetPoint" />
          </mxGeometry>
        </mxCell>
        <mxCell id="1Bm8bW64AVhzCGLXQXjF-20" value="" style="endArrow=none;html=1;fillColor=#f5f5f5;" edge="1" parent="1">
          <mxGeometry width="50" height="50" relative="1" as="geometry">
            <mxPoint x="405" y="-827.5" as="sourcePoint" />
            <mxPoint x="495" y="-827.5" as="targetPoint" />
          </mxGeometry>
        </mxCell>
        <mxCell id="1Bm8bW64AVhzCGLXQXjF-40" value="&lt;font style=&quot;font-size: 48px&quot;&gt;Klient&lt;/font&gt;" style="text;html=1;strokeColor=none;fillColor=none;align=center;verticalAlign=middle;whiteSpace=wrap;rounded=0;" vertex="1" parent="1">
          <mxGeometry x="428" y="-1101.25" width="40" height="20" as="geometry" />
        </mxCell>
        <mxCell id="1Bm8bW64AVhzCGLXQXjF-41" value="&lt;font style=&quot;font-size: 48px&quot;&gt;Server&lt;/font&gt;" style="text;html=1;strokeColor=none;fillColor=none;align=center;verticalAlign=middle;whiteSpace=wrap;rounded=0;" vertex="1" parent="1">
          <mxGeometry x="1030" y="-1121.25" width="40" height="20" as="geometry" />
        </mxCell>
        <mxCell id="1Bm8bW64AVhzCGLXQXjF-42" value="&lt;font style=&quot;font-size: 24px&quot;&gt;Applikasjonslaget&lt;/font&gt;" style="rounded=0;whiteSpace=wrap;html=1;fillColor=#B3B3B3;" vertex="1" parent="1">
          <mxGeometry x="935" y="-708.75" width="250" height="70" as="geometry" />
        </mxCell>
        <mxCell id="1Bm8bW64AVhzCGLXQXjF-43" value="&lt;font style=&quot;font-size: 24px&quot;&gt;Transportlaget&lt;/font&gt;" style="rounded=0;whiteSpace=wrap;html=1;fillColor=#B3B3B3;" vertex="1" parent="1">
          <mxGeometry x="935" y="-568.75" width="250" height="70" as="geometry" />
        </mxCell>
        <mxCell id="1Bm8bW64AVhzCGLXQXjF-44" value="&lt;font style=&quot;font-size: 24px&quot;&gt;Nettverkslaget&lt;/font&gt;" style="rounded=0;whiteSpace=wrap;html=1;fillColor=#B3B3B3;" vertex="1" parent="1">
          <mxGeometry x="935" y="-428.75" width="250" height="70" as="geometry" />
        </mxCell>
        <mxCell id="1Bm8bW64AVhzCGLXQXjF-45" value="&lt;span style=&quot;font-size: 24px&quot;&gt;Datalink-laget&lt;/span&gt;" style="rounded=0;whiteSpace=wrap;html=1;fillColor=#B3B3B3;" vertex="1" parent="1">
          <mxGeometry x="935" y="-288.75" width="250" height="70" as="geometry" />
        </mxCell>
        <mxCell id="1Bm8bW64AVhzCGLXQXjF-50" value="&lt;font style=&quot;font-size: 24px&quot;&gt;Applikasjonslaget&lt;/font&gt;" style="rounded=0;whiteSpace=wrap;html=1;fillColor=#B3B3B3;" vertex="1" parent="1">
          <mxGeometry x="325" y="-708.75" width="250" height="70" as="geometry" />
        </mxCell>
        <mxCell id="1Bm8bW64AVhzCGLXQXjF-51" value="&lt;font style=&quot;font-size: 24px&quot;&gt;Transportlaget&lt;/font&gt;" style="rounded=0;whiteSpace=wrap;html=1;fillColor=#B3B3B3;" vertex="1" parent="1">
          <mxGeometry x="325" y="-568.75" width="250" height="70" as="geometry" />
        </mxCell>
        <mxCell id="1Bm8bW64AVhzCGLXQXjF-52" value="&lt;font style=&quot;font-size: 24px&quot;&gt;Nettverkslaget&lt;/font&gt;" style="rounded=0;whiteSpace=wrap;html=1;fillColor=#B3B3B3;" vertex="1" parent="1">
          <mxGeometry x="325" y="-428.75" width="250" height="70" as="geometry" />
        </mxCell>
        <mxCell id="1Bm8bW64AVhzCGLXQXjF-53" value="&lt;span style=&quot;font-size: 24px&quot;&gt;Datalink-laget&lt;/span&gt;" style="rounded=0;whiteSpace=wrap;html=1;fillColor=#B3B3B3;" vertex="1" parent="1">
          <mxGeometry x="325" y="-288.75" width="250" height="70" as="geometry" />
        </mxCell>
        <mxCell id="1Bm8bW64AVhzCGLXQXjF-54" value="" style="html=1;shadow=0;dashed=0;align=center;verticalAlign=middle;shape=mxgraph.arrows2.arrow;dy=0.6;dx=40;direction=south;notch=0;fillColor=#CCCCCC;" vertex="1" parent="1">
          <mxGeometry x="415" y="-810" width="70" height="100" as="geometry" />
        </mxCell>
        <mxCell id="1Bm8bW64AVhzCGLXQXjF-56" value="" style="html=1;shadow=0;dashed=0;align=center;verticalAlign=middle;shape=mxgraph.arrows2.arrow;dy=0.6;dx=40;direction=south;notch=0;strokeColor=#000000;fillColor=#CCCCCC;" vertex="1" parent="1">
          <mxGeometry x="415" y="-638.75" width="70" height="70" as="geometry" />
        </mxCell>
        <mxCell id="1Bm8bW64AVhzCGLXQXjF-57" value="" style="html=1;shadow=0;dashed=0;align=center;verticalAlign=middle;shape=mxgraph.arrows2.arrow;dy=0.6;dx=40;direction=south;notch=0;strokeColor=#000000;fillColor=#CCCCCC;" vertex="1" parent="1">
          <mxGeometry x="415" y="-498.75" width="70" height="70" as="geometry" />
        </mxCell>
        <mxCell id="1Bm8bW64AVhzCGLXQXjF-58" value="" style="html=1;shadow=0;dashed=0;align=center;verticalAlign=middle;shape=mxgraph.arrows2.arrow;dy=0.6;dx=40;direction=south;notch=0;strokeColor=#000000;fillColor=#CCCCCC;" vertex="1" parent="1">
          <mxGeometry x="413" y="-358.75" width="70" height="70" as="geometry" />
        </mxCell>
        <mxCell id="1Bm8bW64AVhzCGLXQXjF-60" value="" style="endArrow=none;html=1;strokeWidth=27;exitX=0.5;exitY=1;exitDx=0;exitDy=0;entryX=0.5;entryY=1;entryDx=0;entryDy=0;" edge="1" parent="1" source="1Bm8bW64AVhzCGLXQXjF-53" target="1Bm8bW64AVhzCGLXQXjF-45">
          <mxGeometry width="50" height="50" relative="1" as="geometry">
            <mxPoint x="740" y="-500" as="sourcePoint" />
            <mxPoint x="1050" y="-200" as="targetPoint" />
            <Array as="points">
              <mxPoint x="450" y="-170" />
              <mxPoint x="1060" y="-170" />
            </Array>
          </mxGeometry>
        </mxCell>
        <mxCell id="1Bm8bW64AVhzCGLXQXjF-61" value="" style="html=1;shadow=0;dashed=0;align=center;verticalAlign=middle;shape=mxgraph.arrows2.arrow;dy=0.6;dx=40;direction=north;notch=0;strokeColor=#000000;fillColor=#CCCCCC;" vertex="1" parent="1">
          <mxGeometry x="1030" y="-360" width="70" height="70" as="geometry" />
        </mxCell>
        <mxCell id="1Bm8bW64AVhzCGLXQXjF-63" value="" style="html=1;shadow=0;dashed=0;align=center;verticalAlign=middle;shape=mxgraph.arrows2.arrow;dy=0.6;dx=40;direction=north;notch=0;strokeColor=#000000;fillColor=#CCCCCC;" vertex="1" parent="1">
          <mxGeometry x="1025" y="-778.75" width="70" height="70" as="geometry" />
        </mxCell>
        <mxCell id="1Bm8bW64AVhzCGLXQXjF-64" value="" style="html=1;shadow=0;dashed=0;align=center;verticalAlign=middle;shape=mxgraph.arrows2.arrow;dy=0.6;dx=40;direction=north;notch=0;strokeColor=#000000;fillColor=#CCCCCC;" vertex="1" parent="1">
          <mxGeometry x="1025" y="-500" width="70" height="70" as="geometry" />
        </mxCell>
        <mxCell id="1Bm8bW64AVhzCGLXQXjF-65" value="" style="html=1;shadow=0;dashed=0;align=center;verticalAlign=middle;shape=mxgraph.arrows2.arrow;dy=0.6;dx=40;direction=north;notch=0;strokeColor=#000000;fillColor=#CCCCCC;" vertex="1" parent="1">
          <mxGeometry x="1025" y="-640" width="70" height="70" as="geometry" />
        </mxCell>
        <mxCell id="1Bm8bW64AVhzCGLXQXjF-66" value="&lt;font style=&quot;font-size: 24px&quot;&gt;Overførelsesmedium&lt;/font&gt;" style="text;html=1;strokeColor=none;fillColor=none;align=center;verticalAlign=middle;whiteSpace=wrap;rounded=0;" vertex="1" parent="1">
          <mxGeometry x="740" y="-230" width="40" height="20" as="geometry" />
        </mxCell>
        <mxCell id="1Bm8bW64AVhzCGLXQXjF-68" value="" style="ellipse;shape=cloud;whiteSpace=wrap;html=1;strokeColor=#FFFFFF;" vertex="1" parent="1">
          <mxGeometry x="413" y="-900" width="70" height="50" as="geometry" />
        </mxCell>
      </root>
    </mxGraphModel>
  </diagram>
</mxfile>
